<?xml version="1.0" encoding="UTF-8" standalone="no"?>
<!-- Generator: Adobe Illustrator 15.0.0, SVG Export Plug-In . SVG Version: 6.00 Build 0)  -->

<svg
   xmlns:dc="http://purl.org/dc/elements/1.1/"
   xmlns:cc="http://creativecommons.org/ns#"
   xmlns:rdf="http://www.w3.org/1999/02/22-rdf-syntax-ns#"
   xmlns:svg="http://www.w3.org/2000/svg"
   xmlns="http://www.w3.org/2000/svg"
   xmlns:sodipodi="http://sodipodi.sourceforge.net/DTD/sodipodi-0.dtd"
   xmlns:inkscape="http://www.inkscape.org/namespaces/inkscape"
   version="1.1"
   id="Layer_1"
   inkscape:version="0.48.4 r9939"
   sodipodi:docname="shape_flower.svg"
   x="0px"
   y="0px"
   width="96px"
   height="96px"
   viewBox="0 0 96 96"
   enable-background="new 0 0 96 96"
   xml:space="preserve"><metadata
   id="metadata3064"><rdf:RDF><cc:Work
       rdf:about=""><dc:format>image/svg+xml</dc:format><dc:type
         rdf:resource="http://purl.org/dc/dcmitype/StillImage" /><dc:title></dc:title></cc:Work></rdf:RDF></metadata><defs
   id="defs3062" /><sodipodi:namedview
   pagecolor="#ffffff"
   bordercolor="#666666"
   borderopacity="1"
   objecttolerance="10"
   gridtolerance="10"
   guidetolerance="10"
   inkscape:pageopacity="0"
   inkscape:pageshadow="2"
   inkscape:window-width="1366"
   inkscape:window-height="705"
   id="namedview3060"
   showgrid="false"
   inkscape:zoom="3.93"
   inkscape:cx="48"
   inkscape:cy="48"
   inkscape:window-x="-8"
   inkscape:window-y="-8"
   inkscape:window-maximized="1"
   inkscape:current-layer="Layer_1" />

<rect
   id="rect3"
   display="none"
   fill="#FFFFFF"
   stroke="#000000"
   width="96"
   height="96" />
<path
   style="fill:#000000;fill-opacity:1;stroke:none"
   d="M 42.190849,0.5573364 C 40.910652,0.6117313 39.547784,0.74487738 38.258366,1.0647525 27.942925,3.6253777 21.735207,14.032254 24.323697,24.236758 c 0.396367,1.562545 1.060856,2.956843 1.795266,4.313039 -1.501676,-0.494183 -3.048765,-0.818416 -4.701883,-0.930264 -0.663175,-0.04492 -1.401032,-0.01894 -2.05173,0 C 9.6051012,27.942846 1.4947446,35.538743 0.81428125,45.3791 0.08848831,55.875443 8.1564976,64.957706 18.766926,65.675747 c 1.583226,0.106895 3.122023,0.0017 4.616394,-0.253574 -0.912528,1.238042 -1.703292,2.571721 -2.308196,4.059331 -3.969169,9.760793 0.819215,21.021534 10.686095,24.947962 9.866882,3.926508 21.16453,-0.979599 25.133701,-10.74031 0.605642,-1.489367 0.899094,-2.963255 1.111352,-4.482176 0.910722,1.247244 1.998085,2.432567 3.248574,3.467345 8.157461,6.750474 20.361512,5.701788 27.185434,-2.367942 6.82392,-8.069704 5.763668,-20.05796 -2.393684,-26.808489 -1.236377,-1.023087 -2.633442,-1.870161 -4.017977,-2.53708 1.482308,-0.470532 2.980183,-1.089282 4.359929,-1.945097 9.010655,-5.588749 11.719209,-17.47184 6.069704,-26.385641 -3.884007,-6.128234 -10.703526,-9.246639 -17.525201,-8.795215 -3.100768,0.205403 -6.245988,1.128927 -9.061811,2.87536 -1.376302,0.853623 -2.601047,1.853218 -3.676017,2.959927 0.0026,-1.534994 -0.117358,-3.176857 -0.512933,-4.735884 C 59.41729,6.0052813 51.152289,0.17546168 42.190849,0.5574717 z"
   id="path2169"
   inkscape:connector-curvature="0"
   sodipodi:nodetypes="ccscccscccssccscccscscccc" /></svg>